<?xml version="1.0" encoding="utf-8"?>
<!-- Generator: Adobe Illustrator 26.5.0, SVG Export Plug-In . SVG Version: 6.00 Build 0)  -->
<svg version="1.1" id="Layer_1" xmlns="http://www.w3.org/2000/svg" xmlns:xlink="http://www.w3.org/1999/xlink" x="0px" y="0px"
	 viewBox="0 0 24 24" style="enable-background:new 0 0 24 24;" xml:space="preserve">
<path d="M12,2.2c-5.5,0-10,4.5-10,10s4.5,10,10,10s10-4.5,10-10C22,6.7,17.5,2.2,12,2.2z M15.3,7c1,0,1.7,0.8,1.7,1.7
	s-0.8,1.7-1.7,1.7s-1.7-0.8-1.7-1.7S14.4,7,15.3,7z M8.7,7c1,0,1.7,0.8,1.7,1.7s-0.8,1.7-1.7,1.7S6.9,9.7,6.9,8.7S7.7,7,8.7,7z
	 M12,19.4c-2.5,0-4.7-1.3-6-3.2c0-2,4-3.1,6-3.1s6,1.1,6,3.1C16.7,18.1,14.5,19.4,12,19.4z"/>
</svg>
